<svg width="769" height="236" viewBox="0 0 769 236" fill="none" xmlns="http://www.w3.org/2000/svg">
<path d="M0.5 0.5H85.9204L88.5898 28.9866H31.4869L34.1574 59.2537H91.2591L93.9285 87.7403H36.6709L45.8871 199.906H18.296L0.5 0.5Z" fill="black"/>
<path d="M132.19 57.4731L218.5 57.473L215.884 85.9597H158.145L155.626 114.446L214.051 114.446L206.043 199.906H18.296L15.6267 171.42H180.269L182.923 142.933H124.182L126.851 114.446H127.061L132.19 57.4731Z" fill="black"/>
<path d="M74.2022 221.336C74.2022 229.159 67.8636 235.5 60.0447 235.5C52.2257 235.5 45.8871 229.159 45.8871 221.336C45.8871 213.513 52.2257 207.172 60.0447 207.172C67.8636 207.172 74.2022 213.513 74.2022 221.336Z" fill="black"/>
<path d="M168.949 221.336C168.949 229.159 162.488 235.5 154.519 235.5C146.55 235.5 140.089 229.159 140.089 221.336C140.089 213.513 146.55 207.172 154.519 207.172C162.488 207.172 168.949 213.513 168.949 221.336Z" fill="black"/>
<path d="M307.82 173V110.28H287.66V93.64H307.82V78.92C307.82 73.48 309.42 69.16 312.62 65.96C315.927 62.6533 320.193 61 325.42 61H346.22V77.64H332.46C329.473 77.64 327.98 79.24 327.98 82.44V93.64H348.78V110.28H327.98V173H307.82ZM359.98 173V61H380.14V173H359.98ZM402.513 173V93.64H422.673V173H402.513ZM412.593 84.36C408.966 84.36 405.873 83.1867 403.313 80.84C400.859 78.4933 399.633 75.4 399.633 71.56C399.633 67.72 400.859 64.6267 403.313 62.28C405.873 59.9333 408.966 58.76 412.593 58.76C416.326 58.76 419.419 59.9333 421.873 62.28C424.326 64.6267 425.553 67.72 425.553 71.56C425.553 75.4 424.326 78.4933 421.873 80.84C419.419 83.1867 416.326 84.36 412.593 84.36ZM475.413 173C470.186 173 465.919 171.4 462.613 168.2C459.413 164.893 457.813 160.52 457.813 155.08V110.28H437.973V93.64H457.813V69H477.973V93.64H499.733V110.28H477.973V151.56C477.973 154.76 479.466 156.36 482.453 156.36H497.813V173H475.413ZM550.941 175.24C540.595 175.24 532.115 173 525.501 168.52C518.888 164.04 514.888 157.64 513.501 149.32L532.061 144.52C532.808 148.253 534.035 151.187 535.741 153.32C537.555 155.453 539.741 157 542.301 157.96C544.968 158.813 547.848 159.24 550.941 159.24C555.635 159.24 559.101 158.44 561.341 156.84C563.581 155.133 564.701 153.053 564.701 150.6C564.701 148.147 563.635 146.28 561.501 145C559.368 143.613 555.955 142.493 551.261 141.64L546.781 140.84C541.235 139.773 536.168 138.333 531.581 136.52C526.995 134.6 523.315 131.987 520.541 128.68C517.768 125.373 516.381 121.107 516.381 115.88C516.381 107.987 519.261 101.96 525.021 97.8C530.781 93.5333 538.355 91.4 547.741 91.4C556.595 91.4 563.955 93.3733 569.821 97.32C575.688 101.267 579.528 106.44 581.341 112.84L562.621 118.6C561.768 114.547 560.008 111.667 557.341 109.96C554.781 108.253 551.581 107.4 547.741 107.4C543.901 107.4 540.968 108.093 538.941 109.48C536.915 110.76 535.901 112.573 535.901 114.92C535.901 117.48 536.968 119.4 539.101 120.68C541.235 121.853 544.115 122.76 547.741 123.4L552.221 124.2C558.195 125.267 563.581 126.707 568.381 128.52C573.288 130.227 577.128 132.733 579.901 136.04C582.781 139.24 584.221 143.613 584.221 149.16C584.221 157.48 581.181 163.933 575.101 168.52C569.128 173 561.075 175.24 550.941 175.24ZM638.048 175.24C630.154 175.24 623.168 173.587 617.088 170.28C611.114 166.867 606.421 162.12 603.008 156.04C599.701 149.853 598.048 142.6 598.048 134.28V132.36C598.048 124.04 599.701 116.84 603.008 110.76C606.314 104.573 610.954 99.8267 616.928 96.52C622.901 93.1067 629.834 91.4 637.727 91.4C645.514 91.4 652.288 93.16 658.048 96.68C663.808 100.093 668.288 104.893 671.487 111.08C674.688 117.16 676.288 124.253 676.288 132.36V139.24H618.528C618.741 144.68 620.768 149.107 624.608 152.52C628.448 155.933 633.141 157.64 638.688 157.64C644.341 157.64 648.501 156.413 651.168 153.96C653.834 151.507 655.861 148.787 657.248 145.8L673.728 154.44C672.234 157.213 670.048 160.253 667.168 163.56C664.394 166.76 660.661 169.533 655.968 171.88C651.274 174.12 645.301 175.24 638.048 175.24ZM618.688 124.2H655.808C655.381 119.613 653.514 115.933 650.208 113.16C647.008 110.387 642.794 109 637.568 109C632.128 109 627.808 110.387 624.608 113.16C621.408 115.933 619.434 119.613 618.688 124.2ZM694.231 173V61H714.391V173H694.231ZM736.731 173V61H756.891V173H736.731Z" fill="white"/>
</svg>
