<svg width="219" height="236" viewBox="0 0 219 236" fill="none" xmlns="http://www.w3.org/2000/svg">
<path d="M0.5 0.5H85.9204L88.5898 28.9866H31.4869L34.1574 59.2537H91.2591L93.9285 87.7403H36.6709L45.8871 199.906H18.296L0.5 0.5Z" fill="black"/>
<path d="M132.19 57.4731L218.5 57.473L215.884 85.9597H158.145L155.626 114.446L214.051 114.446L206.043 199.906H18.296L15.6267 171.42H180.269L182.923 142.933H124.182L126.851 114.446H127.061L132.19 57.4731Z" fill="black"/>
<path d="M74.2022 221.336C74.2022 229.159 67.8636 235.5 60.0447 235.5C52.2257 235.5 45.8871 229.159 45.8871 221.336C45.8871 213.513 52.2257 207.172 60.0447 207.172C67.8636 207.172 74.2022 213.513 74.2022 221.336Z" fill="black"/>
<path d="M168.949 221.336C168.949 229.159 162.488 235.5 154.519 235.5C146.55 235.5 140.089 229.159 140.089 221.336C140.089 213.513 146.55 207.172 154.519 207.172C162.488 207.172 168.949 213.513 168.949 221.336Z" fill="black"/>
</svg>
