<svg width="470" height="117" viewBox="0 0 470 117" fill="none" xmlns="http://www.w3.org/2000/svg">
<path d="M20.3362 114.5V51.78H0.176235V35.14H20.3362V20.42C20.3362 14.98 21.9362 10.66 25.1362 7.46C28.4429 4.15333 32.7096 2.49999 37.9362 2.49999H58.7362V19.14H44.9762C41.9896 19.14 40.4962 20.74 40.4962 23.94V35.14H61.2962V51.78H40.4962V114.5H20.3362ZM72.4962 114.5V2.49999H92.6562V114.5H72.4962ZM115.029 114.5V35.14H135.189V114.5H115.029ZM125.109 25.86C121.482 25.86 118.389 24.6867 115.829 22.34C113.375 19.9933 112.149 16.9 112.149 13.06C112.149 9.22 113.375 6.12666 115.829 3.77999C118.389 1.43333 121.482 0.259993 125.109 0.259993C128.842 0.259993 131.935 1.43333 134.389 3.77999C136.842 6.12666 138.069 9.22 138.069 13.06C138.069 16.9 136.842 19.9933 134.389 22.34C131.935 24.6867 128.842 25.86 125.109 25.86ZM187.929 114.5C182.702 114.5 178.435 112.9 175.129 109.7C171.929 106.393 170.329 102.02 170.329 96.58V51.78H150.489V35.14H170.329V10.5H190.489V35.14H212.249V51.78H190.489V93.06C190.489 96.26 191.982 97.86 194.969 97.86H210.329V114.5H187.929ZM263.457 116.74C253.111 116.74 244.631 114.5 238.017 110.02C231.404 105.54 227.404 99.14 226.017 90.82L244.577 86.02C245.324 89.7533 246.551 92.6867 248.257 94.82C250.071 96.9533 252.257 98.5 254.817 99.46C257.484 100.313 260.364 100.74 263.457 100.74C268.151 100.74 271.617 99.94 273.857 98.34C276.097 96.6333 277.217 94.5533 277.217 92.1C277.217 89.6467 276.151 87.78 274.017 86.5C271.884 85.1133 268.471 83.9933 263.777 83.14L259.297 82.34C253.751 81.2733 248.684 79.8333 244.097 78.02C239.511 76.1 235.831 73.4867 233.057 70.18C230.284 66.8733 228.897 62.6067 228.897 57.38C228.897 49.4867 231.777 43.46 237.537 39.3C243.297 35.0333 250.871 32.9 260.257 32.9C269.111 32.9 276.471 34.8733 282.337 38.82C288.204 42.7667 292.044 47.94 293.857 54.34L275.137 60.1C274.284 56.0467 272.524 53.1667 269.857 51.46C267.297 49.7533 264.097 48.9 260.257 48.9C256.417 48.9 253.484 49.5933 251.457 50.98C249.431 52.26 248.417 54.0733 248.417 56.42C248.417 58.98 249.484 60.9 251.617 62.18C253.751 63.3533 256.631 64.26 260.257 64.9L264.737 65.7C270.711 66.7667 276.097 68.2067 280.897 70.02C285.804 71.7267 289.644 74.2333 292.417 77.54C295.297 80.74 296.737 85.1133 296.737 90.66C296.737 98.98 293.697 105.433 287.617 110.02C281.644 114.5 273.591 116.74 263.457 116.74ZM350.564 116.74C342.67 116.74 335.684 115.087 329.604 111.78C323.63 108.367 318.937 103.62 315.524 97.54C312.217 91.3533 310.564 84.1 310.564 75.78V73.86C310.564 65.54 312.217 58.34 315.524 52.26C318.83 46.0733 323.47 41.3267 329.444 38.02C335.417 34.6067 342.35 32.9 350.244 32.9C358.03 32.9 364.804 34.66 370.564 38.18C376.324 41.5933 380.804 46.3933 384.004 52.58C387.204 58.66 388.804 65.7533 388.804 73.86V80.74H331.044C331.257 86.18 333.284 90.6067 337.124 94.02C340.964 97.4333 345.657 99.14 351.204 99.14C356.857 99.14 361.017 97.9133 363.684 95.46C366.35 93.0067 368.377 90.2867 369.764 87.3L386.244 95.94C384.75 98.7133 382.564 101.753 379.684 105.06C376.91 108.26 373.177 111.033 368.484 113.38C363.79 115.62 357.817 116.74 350.564 116.74ZM331.204 65.7H368.324C367.897 61.1133 366.03 57.4333 362.724 54.66C359.524 51.8867 355.31 50.5 350.084 50.5C344.644 50.5 340.324 51.8867 337.124 54.66C333.924 57.4333 331.95 61.1133 331.204 65.7ZM406.747 114.5V2.49999H426.907V114.5H406.747ZM449.247 114.5V2.49999H469.407V114.5H449.247Z" fill="white"/>
</svg>
